# xmcd
#
# Track frame offsets:
#   150
#   37709
#   87278
#   146192
#   195233
#   228085
#   273974
#   297882
#
# Disc length: 4537 seconds
#
# Revision: 0
# Processed by: cddbd v1.5.2PL0 Copyright (c) Steve Scherf et al.
# Submitted via: GXTranscoder 2.0.1939
#
DISCID=6211b708
DTITLE=Jules Verne - 20000 Meilen unter dem Meer
DYEAR=1900
DGENRE=Blues
TTITLE0=Aufbruch
TTITLE1=Auf ewig gefangen
TTITLE2=Kapitän Nemo
TTITLE3=Ein Tunnel unter dem Meer
TTITLE4=Atlantis
TTITLE5=Unter dem Südpol
TTITLE6=Kampf mit dem Polypen
TTITLE7=Flucht von der Nautilus
EXTD=
EXTT0=
EXTT1=
EXTT2=
EXTT3=
EXTT4=
EXTT5=
EXTT6=
EXTT7=
PLAYORDER=
